<?xml version="1.0" encoding="UTF-8" standalone="no"?>
<!-- Created with Inkscape (http://www.inkscape.org/) -->

<svg
   xmlns:dc="http://purl.org/dc/elements/1.1/"
   xmlns:cc="http://creativecommons.org/ns#"
   xmlns:rdf="http://www.w3.org/1999/02/22-rdf-syntax-ns#"
   xmlns:svg="http://www.w3.org/2000/svg"
   xmlns="http://www.w3.org/2000/svg"
   xmlns:xlink="http://www.w3.org/1999/xlink"
   xmlns:sodipodi="http://sodipodi.sourceforge.net/DTD/sodipodi-0.dtd"
   xmlns:inkscape="http://www.inkscape.org/namespaces/inkscape"
   width="210mm"
   height="297mm"
   id="svg2"
   version="1.1"
   inkscape:version="0.48.1 "
   sodipodi:docname="Tierra.svg">
  <defs
     id="defs4">
    <inkscape:path-effect
       effect="spiro"
       id="path-effect4516"
       is_visible="true" />
    <inkscape:path-effect
       effect="spiro"
       id="path-effect4494"
       is_visible="true" />
    <inkscape:path-effect
       effect="spiro"
       id="path-effect4490"
       is_visible="true" />
    <inkscape:path-effect
       effect="spiro"
       id="path-effect4394"
       is_visible="true" />
    <inkscape:path-effect
       effect="spiro"
       id="path-effect4382"
       is_visible="true" />
    <inkscape:path-effect
       effect="spiro"
       id="path-effect4378"
       is_visible="true" />
    <linearGradient
       inkscape:collect="always"
       id="linearGradient4368">
      <stop
         style="stop-color:#ac9d93;stop-opacity:1;"
         offset="0"
         id="stop4370" />
      <stop
         style="stop-color:#ac9d93;stop-opacity:0;"
         offset="1"
         id="stop4372" />
    </linearGradient>
    <linearGradient
       id="linearGradient4320">
      <stop
         style="stop-color:#c89b13;stop-opacity:1;"
         offset="0"
         id="stop4322" />
      <stop
         id="stop4354"
         offset="0.00097656"
         style="stop-color:#c06a05;stop-opacity:0.99607843;" />
      <stop
         id="stop4342"
         offset="0.00390625"
         style="stop-color:#92745c;stop-opacity:1;" />
      <stop
         id="stop4330"
         offset="0.25"
         style="stop-color:#8b612c;stop-opacity:0.74901962;" />
      <stop
         id="stop4328"
         offset="0.5"
         style="stop-color:#b77528;stop-opacity:0.43290043;" />
      <stop
         style="stop-color:#008000;stop-opacity:1;"
         offset="1"
         id="stop4324" />
    </linearGradient>
    <linearGradient
       id="linearGradient4312">
      <stop
         style="stop-color:#55fcff;stop-opacity:1;"
         offset="0"
         id="stop4314" />
      <stop
         style="stop-color:#55fcff;stop-opacity:0;"
         offset="1"
         id="stop4316" />
    </linearGradient>
    <inkscape:path-effect
       effect="spiro"
       id="path-effect4310"
       is_visible="true" />
    <linearGradient
       id="linearGradient4272">
      <stop
         style="stop-color:#55fcff;stop-opacity:1;"
         offset="0"
         id="stop4274" />
      <stop
         id="stop4298"
         offset="0.00390625"
         style="stop-color:#55fbff;stop-opacity:0.99607843;" />
      <stop
         id="stop4296"
         offset="0.0078125"
         style="stop-color:#55fbff;stop-opacity:0.99215686;" />
      <stop
         id="stop4294"
         offset="0.015625"
         style="stop-color:#55faff;stop-opacity:0.98431373;" />
      <stop
         id="stop4292"
         offset="0.03125"
         style="stop-color:#55f9ff;stop-opacity:0.96862745;" />
      <stop
         id="stop4290"
         offset="0.0625"
         style="stop-color:#55f6ff;stop-opacity:0.9372549;" />
      <stop
         id="stop4288"
         offset="0.125"
         style="stop-color:#55deff;stop-opacity:0.87450981;" />
      <stop
         id="stop4286"
         offset="0.25"
         style="stop-color:#55e4ff;stop-opacity:0.74901961;" />
      <stop
         id="stop4280"
         offset="0.5"
         style="stop-color:#55ccff;stop-opacity:0.49803922;" />
      <stop
         style="stop-color:#55cdff;stop-opacity:0.37254902;"
         offset="0.625"
         id="stop4284" />
      <stop
         style="stop-color:#55ceff;stop-opacity:0.24705882;"
         offset="0.75"
         id="stop4282" />
      <stop
         style="stop-color:#55d1ff;stop-opacity:0;"
         offset="1"
         id="stop4276" />
    </linearGradient>
    <inkscape:path-effect
       effect="spiro"
       id="path-effect3466"
       is_visible="true" />
    <inkscape:path-effect
       effect="spiro"
       id="path-effect3007"
       is_visible="true" />
    <inkscape:path-effect
       effect="spiro"
       id="path-effect3859"
       is_visible="true" />
    <inkscape:path-effect
       effect="spiro"
       id="path-effect3847"
       is_visible="true" />
    <inkscape:path-effect
       effect="spiro"
       id="path-effect3843"
       is_visible="true" />
    <inkscape:path-effect
       effect="spiro"
       id="path-effect3839"
       is_visible="true" />
    <inkscape:path-effect
       effect="spiro"
       id="path-effect3835"
       is_visible="true" />
    <linearGradient
       id="linearGradient3813">
      <stop
         style="stop-color:#0048c8;stop-opacity:1;"
         offset="0"
         id="stop3815" />
      <stop
         id="stop3821"
         offset="0.5"
         style="stop-color:#00399f;stop-opacity:0.97254902;" />
      <stop
         style="stop-color:#083588;stop-opacity:0.95686275;"
         offset="0.75"
         id="stop3823" />
      <stop
         style="stop-color:#002c7e;stop-opacity:0.94372296;"
         offset="1"
         id="stop3817" />
    </linearGradient>
    <linearGradient
       id="linearGradient3805">
      <stop
         style="stop-color:#0700ff;stop-opacity:1;"
         offset="0"
         id="stop3807" />
      <stop
         style="stop-color:#0000ff;stop-opacity:0;"
         offset="1"
         id="stop3809" />
    </linearGradient>
    <inkscape:path-effect
       effect="spiro"
       id="path-effect3031"
       is_visible="true" />
    <radialGradient
       inkscape:collect="always"
       xlink:href="#linearGradient3813"
       id="radialGradient3819"
       cx="10.101525"
       cy="274.54471"
       fx="10.101525"
       fy="274.54471"
       r="457.08896"
       gradientUnits="userSpaceOnUse" />
    <filter
       inkscape:collect="always"
       id="filter3809">
      <feGaussianBlur
         inkscape:collect="always"
         stdDeviation="7.7690935"
         id="feGaussianBlur3811" />
    </filter>
    <linearGradient
       inkscape:collect="always"
       xlink:href="#linearGradient4272"
       id="linearGradient4278"
       x1="81.577199"
       y1="521.05079"
       x2="744.35891"
       y2="521.05079"
       gradientUnits="userSpaceOnUse" />
    <filter
       inkscape:collect="always"
       id="filter4304">
      <feGaussianBlur
         inkscape:collect="always"
         stdDeviation="19.171164"
         id="feGaussianBlur4306" />
    </filter>
    <filter
       inkscape:collect="always"
       id="filter4364">
      <feGaussianBlur
         inkscape:collect="always"
         stdDeviation="6.7775397"
         id="feGaussianBlur4366" />
    </filter>
    <linearGradient
       inkscape:collect="always"
       xlink:href="#linearGradient4368"
       id="linearGradient4374"
       x1="248.10658"
       y1="667.20448"
       x2="626.84703"
       y2="667.20448"
       gradientUnits="userSpaceOnUse" />
    <filter
       inkscape:collect="always"
       id="filter4388"
       x="-0.22678899"
       width="1.453578"
       y="-0.25484536"
       height="1.5096907">
      <feGaussianBlur
         inkscape:collect="always"
         stdDeviation="16.214916"
         id="feGaussianBlur4390" />
    </filter>
    <filter
       inkscape:collect="always"
       id="filter4484"
       x="-0.18956781"
       width="1.3791356"
       y="-0.076580373"
       height="1.1531607">
      <feGaussianBlur
         inkscape:collect="always"
         stdDeviation="21.453871"
         id="feGaussianBlur4486" />
    </filter>
    <filter
       inkscape:collect="always"
       id="filter4504"
       x="-0.44341462"
       width="1.8868292"
       y="-0.30300001"
       height="1.606">
      <feGaussianBlur
         inkscape:collect="always"
         stdDeviation="16.864564"
         id="feGaussianBlur4506" />
    </filter>
    <filter
       inkscape:collect="always"
       id="filter4526"
       x="-0.37009345"
       width="1.7401869"
       y="-0.17757848"
       height="1.355157">
      <feGaussianBlur
         inkscape:collect="always"
         stdDeviation="36.734694"
         id="feGaussianBlur4528" />
    </filter>
  </defs>
  <sodipodi:namedview
     id="base"
     pagecolor="#ffffff"
     bordercolor="#666666"
     borderopacity="1.0"
     inkscape:pageopacity="0.0"
     inkscape:pageshadow="2"
     inkscape:zoom="0.44916667"
     inkscape:cx="387.37283"
     inkscape:cy="362.77788"
     inkscape:document-units="px"
     inkscape:current-layer="layer1"
     showgrid="false"
     inkscape:window-width="1366"
     inkscape:window-height="706"
     inkscape:window-x="-8"
     inkscape:window-y="-8"
     inkscape:window-maximized="1"
     showguides="true"
     inkscape:guide-bbox="true" />
  <metadata
     id="metadata7">
    <rdf:RDF>
      <cc:Work
         rdf:about="">
        <dc:format>image/svg+xml</dc:format>
        <dc:type
           rdf:resource="http://purl.org/dc/dcmitype/StillImage" />
        <dc:title />
      </cc:Work>
    </rdf:RDF>
  </metadata>
  <g
     inkscape:label="Capa 1"
     inkscape:groupmode="layer"
     id="layer1">
    <path
       style="opacity:0.96000001000000001;fill:url(#linearGradient4278);fill-opacity:1;stroke:none;filter:url(#filter4304)"
       d="m 397.19672,887.99195 45.34257,1.67941 25.62841,-3.35874 37.45692,-10.07621 31.54266,1.67932 11.82851,-16.7936 c -10.49901,-0.80845 -21.01716,-1.36847 -31.54266,-1.67941 -13.13896,-0.38815 -26.28937,-0.38815 -39.42833,0 l -21.68558,-3.35868 -11.82851,-16.79366 7.88566,-21.83173 19.71417,-15.11429 c 3.12444,-6.24192 6.41162,-12.40238 9.85708,-18.47301 1.92243,-3.38716 3.89412,-6.74636 5.91425,-10.07618 6.5876,-6.14035 13.15902,-12.29805 19.71417,-18.47302 5.92757,-5.58378 11.84183,-11.18169 17.74273,-16.79365 l 19.71418,-3.35874 -5.91425,-13.43491 27.59983,-23.5111 21.68557,-8.39682 c 4.64841,-4.99359 9.24867,-10.032 13.79993,-15.11429 3.98051,-4.44495 7.92353,-8.92346 11.8285,-13.43491 l 19.71415,6.71746 17.74276,1.67936 9.85708,0 -27.59984,-10.07619 -5.91424,-11.75555 -3.94283,-15.11429 0,-15.11428 17.74273,-20.15237 19.71418,-18.473 11.82849,-18.47303 -21.68557,-21.83174 -17.74276,-13.43492 -21.68559,-11.75554 -29.57122,-10.0762 -29.57125,-26.86983 -11.8285,-15.11428 -23.65699,-13.43492 -9.85709,-10.07619 -15.77133,-13.43492 -11.8285,10.07619 -27.59984,-11.75555 9.8571,-20.15238 -5.91425,-15.11428 0,-11.75555 -31.54266,-10.0762 -27.59984,-11.75555 -39.42834,-5.03809 -19.71416,-15.11429 -33.51406,-15.11427 -3.94286,-10.07619 7.88568,-26.86985 7.88566,-15.11427 13.79993,-11.75555 25.6284,-16.79365 c 15.72671,-3.56389 31.49983,-6.92299 47.314,-10.07618 11.80636,-2.35407 23.6356,-4.59337 35.48549,-6.71747 l 39.42834,-11.75555 7.88567,13.43491 19.71415,1.67937 15.77132,11.75555 23.65701,8.39682 -31.54267,-20.15237 0,-8.39681 13.79991,-6.71747 11.82851,-3.35873 -19.71417,-8.39683 -19.71415,-6.71746 c -11.67454,-5.38983 -23.51007,-10.43091 -35.48551,-15.11428 -9.12195,-3.56742 -18.32507,-6.92731 -27.59982,-10.07619 l 15.77132,-6.71745 -17.74274,-5.0381 -33.51408,-1.67937 -57.17107,8.39683 -41.39976,13.43492 -11.82849,1.67936 13.79993,-3.35873 c 3.96867,1.61781 7.91213,3.29745 11.82848,5.03811 5.97971,2.65774 11.8962,5.45773 17.74276,8.39681 l 13.7999,-6.71746 17.74276,-11.75554 45.34256,0 39.42834,13.43491 7.88567,11.75555 31.54266,10.0762 -9.85708,6.71745 -33.51408,-6.71745 -3.94284,-11.75557 -21.68557,8.39684 -9.8571,6.71745 27.59984,1.67936 -33.51407,8.39684 -27.59984,1.67935 -17.74273,15.11428 -23.65702,10.0762 -19.71416,18.47301 -39.42833,18.47301 -1.97143,38.62539 -11.82849,-5.03811 -13.7999,-21.83172 -15.77133,0 -19.71414,8.39682 19.71414,3.35873 7.88566,15.11428 -1.97142,13.43492 -21.68559,-3.35873 -15.77131,0 c -3.86946,3.44364 -7.81354,6.80342 -11.82854,10.07619 -6.41906,5.23241 -13.01805,10.24134 -19.71409,15.11427 -3.90971,2.84523 -7.85292,5.64443 -11.82854,8.39682 l -5.91423,8.39683 23.65698,-5.0381 15.77137,-15.11427 19.71411,-6.71746 -11.82852,31.90793 -9.85708,8.39682 19.71421,-5.0381 21.68557,1.67937 1.97142,21.83174 0,13.43492 13.79992,5.0381 19.71417,-1.67938 13.7999,3.35874 11.8285,-8.39683 25.62842,-10.07617 21.68558,-5.03811 21.68557,0 5.91424,11.75555 21.68559,6.71748 31.54267,-5.03812 17.74274,16.79366 17.74276,13.43491 35.48549,6.71747 27.59982,16.79364 17.74275,18.47301 29.57125,26.86984 45.34256,13.43491 29.57125,16.79364 11.82851,20.15239 -15.77133,31.90793 -25.62843,10.07618 0,21.83175 -15.77132,41.98412 -37.45691,16.79364 -25.62841,16.79365 -15.77132,20.15237 c -5.86713,6.2027 -11.78161,12.36061 -17.74275,18.47302 -7.16159,7.34333 -14.39052,14.62098 -21.68558,21.83173 l -21.68558,10.0762 -13.79993,18.47301 -33.51407,6.71746 -13.79991,23.51111 -9.8571,11.75553 0,21.83175 -1.9714,8.3968 -3.94284,8.39689 17.74275,16.7936"
       id="path3464"
       inkscape:path-effect="#path-effect3466"
       inkscape:original-d="m 397.19672,887.99195 45.34257,1.67941 25.62841,-3.35874 37.45692,-10.07621 31.54266,1.67932 11.82851,-16.7936 -31.54266,-1.67941 -39.42833,0 -21.68558,-3.35868 -11.82851,-16.79366 7.88566,-21.83173 19.71417,-15.11429 9.85708,-18.47301 5.91425,-10.07618 19.71417,-18.47302 17.74273,-16.79365 19.71418,-3.35874 -5.91425,-13.43491 27.59983,-23.5111 21.68557,-8.39682 13.79993,-15.11429 11.8285,-13.43491 19.71415,6.71746 17.74276,1.67936 9.85708,0 -27.59984,-10.07619 -5.91424,-11.75555 -3.94283,-15.11429 0,-15.11428 17.74273,-20.15237 19.71418,-18.473 11.82849,-18.47303 -21.68557,-21.83174 -17.74276,-13.43492 -21.68559,-11.75554 -29.57122,-10.0762 -29.57125,-26.86983 -11.8285,-15.11428 -23.65699,-13.43492 -9.85709,-10.07619 -15.77133,-13.43492 -11.8285,10.07619 -27.59984,-11.75555 9.8571,-20.15238 -5.91425,-15.11428 0,-11.75555 -31.54266,-10.0762 -27.59984,-11.75555 -39.42834,-5.03809 -19.71416,-15.11429 -33.51406,-15.11427 -3.94286,-10.07619 7.88568,-26.86985 7.88566,-15.11427 13.79993,-11.75555 25.6284,-16.79365 47.314,-10.07618 35.48549,-6.71747 39.42834,-11.75555 7.88567,13.43491 19.71415,1.67937 15.77132,11.75555 23.65701,8.39682 -31.54267,-20.15237 0,-8.39681 13.79991,-6.71747 11.82851,-3.35873 -19.71417,-8.39683 -19.71415,-6.71746 -35.48551,-15.11428 -27.59982,-10.07619 15.77132,-6.71745 -17.74274,-5.0381 -33.51408,-1.67937 -57.17107,8.39683 -41.39976,13.43492 -11.82849,1.67936 13.79993,-3.35873 11.82848,5.03811 17.74276,8.39681 13.7999,-6.71746 17.74276,-11.75554 45.34256,0 39.42834,13.43491 7.88567,11.75555 31.54266,10.0762 -9.85708,6.71745 -33.51408,-6.71745 -3.94284,-11.75557 -21.68557,8.39684 -9.8571,6.71745 27.59984,1.67936 -33.51407,8.39684 -27.59984,1.67935 -17.74273,15.11428 -23.65702,10.0762 -19.71416,18.47301 -39.42833,18.47301 -1.97143,38.62539 -11.82849,-5.03811 -13.7999,-21.83172 -15.77133,0 -19.71414,8.39682 19.71414,3.35873 7.88566,15.11428 -1.97142,13.43492 -21.68559,-3.35873 -15.77131,0 -11.82854,10.07619 -19.71409,15.11427 -11.82854,8.39682 -5.91423,8.39683 23.65698,-5.0381 15.77137,-15.11427 19.71411,-6.71746 -11.82852,31.90793 -9.85708,8.39682 19.71421,-5.0381 21.68557,1.67937 1.97142,21.83174 0,13.43492 13.79992,5.0381 19.71417,-1.67938 13.7999,3.35874 11.8285,-8.39683 25.62842,-10.07617 21.68558,-5.03811 21.68557,0 5.91424,11.75555 21.68559,6.71748 31.54267,-5.03812 17.74274,16.79366 17.74276,13.43491 35.48549,6.71747 27.59982,16.79364 17.74275,18.47301 29.57125,26.86984 45.34256,13.43491 29.57125,16.79364 11.82851,20.15239 -15.77133,31.90793 -25.62843,10.07618 0,21.83175 -15.77132,41.98412 -37.45691,16.79364 -25.62841,16.79365 -15.77132,20.15237 -17.74275,18.47302 -21.68558,21.83173 -21.68558,10.0762 -13.79993,18.47301 -33.51407,6.71746 -13.79991,23.51111 -9.8571,11.75553 0,21.83175 -1.9714,8.3968 -3.94284,8.39689 z"
       inkscape:connector-curvature="0"
       transform="matrix(0.94304661,0,0,1.0055265,8.6991232,-4.916781)" />
    <g
       id="g4530">
      <path
         transform="matrix(0.80110277,0,0,0.80110277,367.6844,307.14431)"
         d="m 466.69048,274.54471 a 456.58896,456.58896 0 1 1 -913.17791,0 456.58896,456.58896 0 1 1 913.17791,0 z"
         sodipodi:ry="456.58896"
         sodipodi:rx="456.58896"
         sodipodi:cy="274.54471"
         sodipodi:cx="10.101525"
         id="path3035"
         style="fill:url(#radialGradient3819);fill-opacity:1;fill-rule:evenodd;stroke:#000000;stroke-width:1px;stroke-linecap:butt;stroke-linejoin:miter;stroke-opacity:1;"
         sodipodi:type="arc" />
      <path
         inkscape:connector-curvature="0"
         inkscape:original-d="m 356.1304,236.18408 1.65386,-3.859 -93.16724,15.71163 z"
         inkscape:path-effect="#path-effect3839"
         id="path3837"
         d="m 356.1304,236.18408 1.65386,-3.859 -93.16724,15.71163 91.51338,-11.85263"
         style="fill:#008000;stroke:none;stroke-width:1px;stroke-linecap:butt;stroke-linejoin:miter;stroke-opacity:1" />
      <path
         inkscape:connector-curvature="0"
         inkscape:original-d="m 268.20037,246.6585 86.55182,-11.85264 -0.27565,1.37822 -15.43599,4.13464 z"
         inkscape:path-effect="#path-effect3843"
         id="path3841"
         d="m 268.20037,246.6585 86.55182,-11.85264 -0.27565,1.37822 -15.43599,4.13464 -70.84018,6.33978"
         style="fill:#008000;stroke:none;stroke-width:1px;stroke-linecap:butt;stroke-linejoin:miter;stroke-opacity:1" />
      <path
         inkscape:connector-curvature="0"
         inkscape:original-d="m 272.61065,244.729 50.16698,-8.26928 -6.89107,15.16035 -45.2054,-2.20514 2.48078,-6.33979 z"
         inkscape:path-effect="#path-effect3847"
         id="path3845"
         d="m 272.61065,244.729 50.16698,-8.26928 -6.89107,15.16035 -45.2054,-2.20514 2.48078,-6.33979 -0.55129,1.65386"
         style="fill:#008000;stroke:none;stroke-width:1px;stroke-linecap:butt;stroke-linejoin:miter;stroke-opacity:1;fill-opacity:1" />
      <path
         inkscape:connector-curvature="0"
         inkscape:original-d="m 269.22001,221.36491 -9.25234,-2.64353 1.98264,3.96529 -0.66088,4.62618 -7.93058,1.32176 -6.60881,3.96529 -11.23499,1.98264 -3.96529,2.64353 9.91322,1.32176 13.87852,-3.96529 4.62617,-1.32176 -1.98265,3.96529 -1.98264,3.96529 -5.28705,6.60882 -3.96529,1.98264 -4.62618,3.96529 0.66089,9.91323 11.23498,-7.93058 3.30441,-9.91323 12.55675,-6.60881 3.30441,-1.32177 4.62617,6.60882 -1.98264,4.62617 9.91322,1.32176 4.62617,-7.93058 9.91323,-0.66088 -3.96529,-7.2697 -4.62617,1.32177 -2.64353,1.98264 -14.5394,-2.64352 0.66089,-1.98265 3.3044,-3.96529 0,-1.98264 -7.26969,-1.32177 z"
         inkscape:path-effect="#path-effect3859"
         id="path3857"
         d="m 269.22001,221.36491 -9.25234,-2.64353 1.98264,3.96529 -0.66088,4.62618 -7.93058,1.32176 -6.60881,3.96529 -11.23499,1.98264 -3.96529,2.64353 9.91322,1.32176 c 4.62617,-1.32176 9.25235,-2.64353 13.87852,-3.96529 1.54206,-0.44059 3.08411,-0.88117 4.62617,-1.32176 -0.66088,1.32176 -1.32177,2.64353 -1.98265,3.96529 -0.66088,1.32176 -1.32176,2.64353 -1.98264,3.96529 l -5.28705,6.60882 -3.96529,1.98264 -4.62618,3.96529 0.66089,9.91323 11.23498,-7.93058 3.30441,-9.91323 12.55675,-6.60881 3.30441,-1.32177 4.62617,6.60882 -1.98264,4.62617 9.91322,1.32176 4.62617,-7.93058 9.91323,-0.66088 -3.96529,-7.2697 -4.62617,1.32177 -2.64353,1.98264 -14.5394,-2.64352 0.66089,-1.98265 3.3044,-3.96529 0,-1.98264 -7.26969,-1.32177 -1.98265,-4.62617"
         style="fill:#173469;stroke:none;stroke-width:1px;stroke-linecap:butt;stroke-linejoin:miter;stroke-opacity:1;fill-opacity:1" />
      <path
         inkscape:connector-curvature="0"
         inkscape:original-d="m 136.96094,247.91343 -23.61396,53.52496 -3.14852,23.61396 1.57426,45.65365 14.16837,17.3169 34.6338,12.59411 36.20807,6.29705 28.33675,11.01985 28.33674,25.18822 31.48528,11.01984 -14.16838,23.61396 -7.87131,17.3169 -7.87132,12.59411 -3.14853,28.33675 18.89116,28.33674 28.33675,45.65365 39.35659,28.33675 1.57427,20.46543 1.57426,36.20806 -1.57426,50.37644 -7.87132,29.91101 4.72279,23.61396 -6.29706,45.65364 22.0397,34.6338 15.74263,7.87132 -22.03969,-31.48527 -7.87132,-9.44558 6.29706,-20.46543 3.14853,-26.76248 -9.44559,-31.48528 14.16838,-14.16837 -4.72279,-18.89117 3.14852,-55.09923 -6.29705,-53.52496 -42.50512,-22.03969 -23.61396,-50.37644 -14.16837,-17.3169 -3.14853,-11.01985 4.72279,-26.76248 26.76249,-39.35659 0,-11.01985 -22.0397,-11.01985 -29.91101,-7.87132 -9.44558,-15.74263 -23.61395,-11.01985 -12.59411,-9.44558 -31.48528,1.57426 -31.48527,-22.03969 -17.3169,-15.74264 3.14852,-59.82202 20.46543,-26.76248 z"
         inkscape:path-effect="#path-effect3007"
         id="path3005"
         d="m 136.96094,247.91343 -23.61396,53.52496 -3.14852,23.61396 1.57426,45.65365 14.16837,17.3169 34.6338,12.59411 36.20807,6.29705 28.33675,11.01985 28.33674,25.18822 31.48528,11.01984 -14.16838,23.61396 -7.87131,17.3169 -7.87132,12.59411 -3.14853,28.33675 c 6.41584,9.36567 12.71356,18.81225 18.89116,28.33674 9.74714,15.02793 19.19522,30.24983 28.33675,45.65365 l 39.35659,28.33675 c 0.60692,6.81516 1.13173,13.63763 1.57427,20.46543 0.78143,12.05637 1.30634,24.12936 1.57426,36.20806 l -1.57426,50.37644 -7.87132,29.91101 4.72279,23.61396 -6.29706,45.65364 22.0397,34.6338 15.74263,7.87132 -22.03969,-31.48527 -7.87132,-9.44558 6.29706,-20.46543 3.14853,-26.76248 -9.44559,-31.48528 14.16838,-14.16837 -4.72279,-18.89117 3.14852,-55.09923 -6.29705,-53.52496 -42.50512,-22.03969 -23.61396,-50.37644 -14.16837,-17.3169 -3.14853,-11.01985 4.72279,-26.76248 26.76249,-39.35659 0,-11.01985 -22.0397,-11.01985 -29.91101,-7.87132 -9.44558,-15.74263 -23.61395,-11.01985 -12.59411,-9.44558 -31.48528,1.57426 -31.48527,-22.03969 -17.3169,-15.74264 3.14852,-59.82202 20.46543,-26.76248 -1.57426,-22.03969"
         style="fill:#00ffff;fill-opacity:1;stroke:none;filter:url(#filter3809)" />
      <path
         inkscape:connector-curvature="0"
         inkscape:original-d="m 130.37165,265.49141 -7.5442,15.08831 -6.03531,10.56179 -7.54412,22.63246 0,16.59712 -1.50883,25.6501 10.56178,1.50883 0,-16.59712 3.01765,-31.68543 4.52647,-7.54414 0,25.6501 -3.01764,21.12362 0,15.08829 3.01764,13.57946 19.61482,9.05297 19.61478,4.5265 24.14128,-1.50883 10.5618,7.54415 24.14128,9.05297 6.03532,4.5265 7.54414,13.57946 16.59712,9.05297 12.07064,4.5265 9.05298,0 15.0883,9.05297 -7.54416,15.08829 -4.52648,15.08831 -6.03532,9.05297 -13.57947,13.57947 3.01766,15.08829 -6.03532,13.57946 1.50884,10.56182 12.07063,9.05297 10.5618,22.63244 13.57947,27.15893 13.57947,13.57946 15.08829,9.05299 18.10596,6.03532 3.01766,9.05297 3.01766,18.10596 -1.50883,31.68541 -3.01767,28.66776 0,7.54416 0,15.08829 4.5265,18.10595 -6.03532,9.05299 -6.03532,12.07063 6.03532,16.59712 1.50882,9.05297 0,19.61479 -3.01765,10.56182 -4.52649,15.08832 13.57946,15.08825 9.05298,9.05296 15.0883,18.10598 16.59712,-6.0353 -15.08829,-9.05303 -1.50883,-15.08825 6.03531,-6.03531 9.05299,-7.54416 -4.5265,-15.08829 7.54415,-6.03532 1.50883,-10.56182 0,-7.54414 13.57947,-3.01765 10.5618,-12.07064 24.14128,-9.05299 -1.50883,-7.54415 1.50883,-13.57946 16.59712,0 13.57947,-6.03532 3.01766,-9.05297 6.03531,-7.54415 7.54415,-19.61479 13.57947,-4.52649 1.50883,-13.57946 10.5618,-13.57947 7.54415,-3.01765 22.63245,-9.05297 7.54415,-1.50885 21.12361,-21.12361 7.54414,-27.15893 3.01766,-15.08829 15.0883,-22.63244 18.10595,-16.59713 -6.03532,-30.17659 -10.5618,3.01765 -13.57947,-19.61478 -15.08829,-6.0353 -22.63245,-4.5265 -24.14127,-12.07064 -9.05298,-4.52649 0,-15.0883 -7.54414,-6.03532 -10.56181,-7.54414 -7.54414,-6.03532 -16.59714,-13.57947 -27.15893,-4.52647 -15.08829,-15.08831 -12.07064,-6.03531 -6.03531,-12.07063 -15.0883,-1.50883 -16.59712,3.01765 -12.07064,1.50883 -10.56181,-7.54415 -19.61478,0 -3.01766,7.54415 -1.50883,12.07064 -7.54414,-1.50883 3.01765,-13.57946 -6.03532,-1.50883 -21.12361,10.5618 -9.05298,7.54414 -9.05298,-6.03532 -10.5618,0 -10.56181,4.5265 -15.0883,-6.03532 -1.50882,-16.59712 7.54414,-10.56182 0,-10.56179 -21.12361,-3.01767 -4.52649,6.03532 -9.05297,0 3.01766,-15.08829 7.54414,-12.07064 3.01766,-13.57947 -13.57946,3.01766 -7.54415,4.52649 -10.56181,16.59713 -15.0883,4.52648 -7.54414,-9.05297 -3.01766,-7.54415 0,-15.08829 7.54415,-13.57947 7.54415,-12.07064 22.63243,-18.10596 10.56182,3.01767 18.10595,-3.01767 13.57946,-13.57946 16.59713,12.07064 7.54415,21.12361 7.54414,-7.54415 1.50883,-12.07064 0,-21.12361 16.59714,-9.05297 21.12361,-7.54414 0,-12.07064 16.59711,-7.54415 10.56182,-6.03532"
         inkscape:path-effect="#path-effect3031"
         id="path3029"
         d="m 130.37165,265.49141 c -2.35168,5.10878 -4.86816,10.14171 -7.5442,15.08831 -1.92955,3.56674 -3.94205,7.0886 -6.03531,10.56179 l -7.54412,22.63246 c 0.12756,5.53139 0.12756,11.06573 0,16.59712 -0.1975,8.56436 -0.70087,17.12165 -1.50883,25.6501 l 10.56178,1.50883 0,-16.59712 3.01765,-31.68543 4.52647,-7.54414 0,25.6501 -3.01764,21.12362 0,15.08829 3.01764,13.57946 19.61482,9.05297 19.61478,4.5265 24.14128,-1.50883 10.5618,7.54415 24.14128,9.05297 6.03532,4.5265 7.54414,13.57946 16.59712,9.05297 12.07064,4.5265 9.05298,0 15.0883,9.05297 -7.54416,15.08829 -4.52648,15.08831 -6.03532,9.05297 -13.57947,13.57947 3.01766,15.08829 -6.03532,13.57946 1.50884,10.56182 12.07063,9.05297 c 3.42843,7.58671 6.94938,15.1316 10.5618,22.63244 4.39194,9.11942 8.91909,18.17373 13.57947,27.15893 l 13.57947,13.57946 15.08829,9.05299 18.10596,6.03532 3.01766,9.05297 3.01766,18.10596 c -0.18576,10.57373 -0.689,21.14188 -1.50883,31.68541 -0.74498,9.58099 -1.75137,19.14165 -3.01767,28.66776 l 0,7.54416 0,15.08829 4.5265,18.10595 -6.03532,9.05299 -6.03532,12.07063 6.03532,16.59712 1.50882,9.05297 0,19.61479 c -0.98684,3.52601 -1.99275,7.04669 -3.01765,10.56182 -1.46981,5.04104 -2.9787,10.07068 -4.52649,15.08832 4.36274,5.17364 8.89236,10.20654 13.57946,15.08825 2.95588,3.0786 5.97437,6.09709 9.05298,9.05296 l 15.0883,18.10598 16.59712,-6.0353 -15.08829,-9.05303 -1.50883,-15.08825 6.03531,-6.03531 9.05299,-7.54416 -4.5265,-15.08829 7.54415,-6.03532 1.50883,-10.56182 0,-7.54414 13.57947,-3.01765 10.5618,-12.07064 24.14128,-9.05299 -1.50883,-7.54415 1.50883,-13.57946 16.59712,0 13.57947,-6.03532 3.01766,-9.05297 6.03531,-7.54415 7.54415,-19.61479 13.57947,-4.52649 1.50883,-13.57946 10.5618,-13.57947 c 2.51472,-1.00588 5.02943,-2.01177 7.54415,-3.01765 7.54415,-3.01765 15.0883,-6.03531 22.63245,-9.05297 l 7.54415,-1.50885 21.12361,-21.12361 7.54414,-27.15893 3.01766,-15.08829 15.0883,-22.63244 18.10595,-16.59713 -6.03532,-30.17659 -10.5618,3.01765 -13.57947,-19.61478 -15.08829,-6.0353 -22.63245,-4.5265 c -8.04709,-4.02355 -16.09418,-8.04709 -24.14127,-12.07064 -3.01766,-1.50883 -6.03532,-3.01766 -9.05298,-4.52649 l 0,-15.0883 c -2.4334,-2.1107 -4.95076,-4.1246 -7.54414,-6.03532 -3.48332,-2.56641 -7.10228,-4.94575 -10.56181,-7.54414 -2.57522,-1.9342 -5.05861,-3.98714 -7.54414,-6.03532 -5.51652,-4.54583 -11.04895,-9.07235 -16.59714,-13.57947 l -27.15893,-4.52647 -15.08829,-15.08831 -12.07064,-6.03531 -6.03531,-12.07063 -15.0883,-1.50883 c -5.49802,1.18393 -11.03423,2.19052 -16.59712,3.01765 -4.01113,0.59641 -8.03612,1.09953 -12.07064,1.50883 l -10.56181,-7.54415 -19.61478,0 -3.01766,7.54415 -1.50883,12.07064 -7.54414,-1.50883 3.01765,-13.57946 -6.03532,-1.50883 -21.12361,10.5618 -9.05298,7.54414 -9.05298,-6.03532 -10.5618,0 -10.56181,4.5265 -15.0883,-6.03532 -1.50882,-16.59712 7.54414,-10.56182 0,-10.56179 -21.12361,-3.01767 -4.52649,6.03532 -9.05297,0 3.01766,-15.08829 7.54414,-12.07064 3.01766,-13.57947 -13.57946,3.01766 -7.54415,4.52649 -10.56181,16.59713 -15.0883,4.52648 -7.54414,-9.05297 -3.01766,-7.54415 0,-15.08829 c 2.39246,-4.59298 4.90839,-9.12165 7.54415,-13.57947 2.41513,-4.08466 4.93086,-8.10983 7.54415,-12.07064 l 22.63243,-18.10596 10.56182,3.01767 18.10595,-3.01767 13.57946,-13.57946 16.59713,12.07064 7.54415,21.12361 7.54414,-7.54415 1.50883,-12.07064 0,-21.12361 16.59714,-9.05297 21.12361,-7.54414 0,-12.07064 16.59711,-7.54415 10.56182,-6.03532"
         style="fill:#008000;fill-opacity:1;stroke:none" />
      <path
         inkscape:connector-curvature="0"
         inkscape:original-d="m 353.55339,236.15893 28.28427,-20.20305 26.26397,16.16244 18.18274,-10.10153 22.22336,-2.0203 -4.04061,-16.16245 -34.34519,2.02031 -6.06091,-10.10153 -2.02031,-14.14213 -26.26396,-2.02031 -32.32488,8.08122 -10.10153,20.20306 -20.20305,0 -16.16244,-14.14214 -22.22336,12.12183 -20.20305,-2.02031 -6.06091,-20.20305 -60.60916,32.32489 -40.4061,26.26396 -12.12183,26.26397 z"
         inkscape:path-effect="#path-effect3835"
         id="path3833"
         d="m 353.55339,236.15893 28.28427,-20.20305 26.26397,16.16244 18.18274,-10.10153 22.22336,-2.0203 -4.04061,-16.16245 -34.34519,2.02031 -6.06091,-10.10153 -2.02031,-14.14213 -26.26396,-2.02031 -32.32488,8.08122 -10.10153,20.20306 -20.20305,0 -16.16244,-14.14214 -22.22336,12.12183 -20.20305,-2.02031 -6.06091,-20.20305 -60.60916,32.32489 -40.4061,26.26396 -12.12183,26.26397 218.19295,-32.32488"
         style="fill:#008000;stroke:none;stroke-width:1px;stroke-linecap:butt;stroke-linejoin:miter;stroke-opacity:1" />
      <path
         inkscape:connector-curvature="0"
         inkscape:original-d="m 308.71463,448.90569 -27.28736,40.93103 -13.64368,46.0474 35.81465,46.0474 39.22558,18.76005 17.05459,10.23275 22.17096,17.0546 13.64368,-15.34913 -30.69827,-15.34913 11.93822,-8.5273 18.76005,-22.17097 22.17097,10.23275 28.99281,5.11638 25.58189,20.46552 10.23275,-13.64368 5.11639,-17.05459 8.52729,-30.69828 3.41093,-17.05459 30.69826,3.41091 23.87643,10.23277 17.0546,-18.76005 23.87643,8.52728 15.34913,13.64368 -5.11637,34.10919 -23.87643,25.58189 -8.52731,39.22557 -11.93821,30.69826 -17.05459,5.11639 -39.22556,15.34913 -6.82184,30.69827 -27.28736,25.58189 -10.23275,13.64367 -10.23275,1.70547 -13.64368,10.23275 -25.5819,15.34913 -30.69825,11.93822 -3.41093,17.0546 -3.41091,20.4655 0,22.17094 1.70544,25.58191 -13.64366,-6.82185 -11.93821,-8.52728 -3.41093,-22.17096 -3.41091,-25.58189 0,-25.58189 -1.70547,-27.28734 10.23275,-23.87644 -8.52728,-25.58189 8.52728,-25.5819 -1.70544,-37.52009 -6.82184,-25.5819 -34.10919,-20.46552 -18.76005,-27.28734 -25.5819,-42.63649 3.41091,-44.34194 z"
         inkscape:path-effect="#path-effect4310"
         id="path4308"
         d="m 308.71463,448.90569 -27.28736,40.93103 -13.64368,46.0474 35.81465,46.0474 39.22558,18.76005 17.05459,10.23275 22.17096,17.0546 13.64368,-15.34913 -30.69827,-15.34913 11.93822,-8.5273 18.76005,-22.17097 22.17097,10.23275 28.99281,5.11638 25.58189,20.46552 10.23275,-13.64368 c 1.74723,-5.67222 3.45276,-11.35729 5.11639,-17.05459 2.97691,-10.19477 5.81966,-20.42871 8.52729,-30.69828 l 3.41093,-17.05459 30.69826,3.41091 23.87643,10.23277 17.0546,-18.76005 23.87643,8.52728 15.34913,13.64368 -5.11637,34.10919 -23.87643,25.58189 -8.52731,39.22557 -11.93821,30.69826 -17.05459,5.11639 -39.22556,15.34913 -6.82184,30.69827 -27.28736,25.58189 -10.23275,13.64367 -10.23275,1.70547 -13.64368,10.23275 -25.5819,15.34913 -30.69825,11.93822 c -1.22049,5.66774 -2.35763,11.35342 -3.41093,17.0546 -1.25653,6.80119 -2.39373,13.62442 -3.41091,20.4655 l 0,22.17094 1.70544,25.58191 -13.64366,-6.82185 -11.93821,-8.52728 c -1.20601,-7.37948 -2.34306,-14.77023 -3.41093,-22.17096 -1.22862,-8.51474 -2.36568,-17.0427 -3.41091,-25.58189 0.25729,-8.52471 0.25729,-17.05718 0,-25.58189 -0.27498,-9.11096 -0.84386,-18.21305 -1.70547,-27.28734 l 10.23275,-23.87644 -8.52728,-25.58189 8.52728,-25.5819 -1.70544,-37.52009 -6.82184,-25.5819 -34.10919,-20.46552 c -6.47701,-8.93928 -12.73291,-18.03877 -18.76005,-27.28734 -9.05119,-13.88894 -17.58633,-28.11418 -25.5819,-42.63649 l 3.41091,-44.34194 40.93104,-47.75286"
         style="fill:url(#linearGradient4374);stroke:none;stroke-width:0.76603549999999998px;stroke-linecap:butt;stroke-linejoin:miter;stroke-opacity:1;fill-opacity:1;filter:url(#filter4364)" />
      <path
         inkscape:connector-curvature="0"
         inkscape:original-d="m 199.93149,206.98257 20.46543,20.46543 33.05954,0 22.03969,22.03969 4.72279,28.33675 1.57426,14.16837 -15.74263,-15.74264 -25.18822,6.29706 -31.48528,11.01984 -51.9507,11.01985 -6.29705,36.20807 -12.59411,18.89116 -7.87132,-44.07938 0,-12.59411 -9.44558,6.29705 -3.14853,33.05954 -4.72279,3.14853 -3.14853,-29.91101 12.59411,-23.61396 7.87132,-14.16837 11.01984,-9.44559 11.01985,-29.91101 z"
         inkscape:path-effect="#path-effect4382"
         id="path4380"
         d="m 199.93149,206.98257 20.46543,20.46543 33.05954,0 22.03969,22.03969 c 1.91759,9.38407 3.49324,18.83801 4.72279,28.33675 0.61004,4.71279 1.13491,9.43661 1.57426,14.16837 l -15.74263,-15.74264 -25.18822,6.29706 -31.48528,11.01984 -51.9507,11.01985 -6.29705,36.20807 -12.59411,18.89116 -7.87132,-44.07938 0,-12.59411 -9.44558,6.29705 -3.14853,33.05954 -4.72279,3.14853 -3.14853,-29.91101 c 4.11384,-7.91584 8.3122,-15.78776 12.59411,-23.61396 2.5932,-4.73969 5.21705,-9.46261 7.87132,-14.16837 l 11.01984,-9.44559 11.01985,-29.91101 47.22791,-31.48527"
         style="fill:#bbafa7;stroke:none;stroke-width:1px;stroke-linecap:butt;stroke-linejoin:miter;stroke-opacity:1;filter:url(#filter4388);fill-opacity:1" />
      <path
         inkscape:connector-curvature="0"
         inkscape:original-d="m 485.34323,210.80374 28.94249,48.97959 13.35807,31.16883 -2.22635,46.75325 11.13173,57.88497 55.65862,44.5269 31.16883,31.16883 6.67904,31.16884 22.26345,46.75324 c 0,0 2.22635,64.56401 2.22635,73.46939 0,8.90538 -37.84787,86.82746 -37.84787,86.82746 l -48.97959,73.46939 -15.58442,48.97959 -8.90538,13.35807 42.30056,-46.75325 15.58441,-26.71614 28.94249,-51.20594 31.16883,-35.62152 15.58442,-66.79035 6.67903,-62.33766 -22.26345,-69.0167 -46.75325,-66.79035 -44.5269,-35.62152 -4.45269,-51.20594 -8.90538,-73.46939 -35.62152,-51.20594 -69.0167,-35.62152 -40.07421,2.22635 82.37477,42.30055 z"
         inkscape:path-effect="#path-effect4394"
         id="path4392"
         d="m 485.34323,210.80374 28.94249,48.97959 13.35807,31.16883 -2.22635,46.75325 11.13173,57.88497 55.65862,44.5269 31.16883,31.16883 6.67904,31.16884 22.26345,46.75324 c 5.44467,24.0441 6.20514,49.13973 2.22635,73.46939 -5.14862,31.48293 -18.28805,61.62634 -37.84787,86.82746 l -48.97959,73.46939 -15.58442,48.97959 -8.90538,13.35807 42.30056,-46.75325 c 5.23657,-8.88093 10.43145,-17.78644 15.58441,-26.71614 9.79963,-16.98206 19.44764,-34.05161 28.94249,-51.20594 l 31.16883,-35.62152 15.58442,-66.79035 6.67903,-62.33766 -22.26345,-69.0167 -46.75325,-66.79035 -44.5269,-35.62152 c -1.24709,-17.08816 -2.73151,-34.159 -4.45269,-51.20594 -2.47833,-24.54589 -5.44759,-49.04222 -8.90538,-73.46939 l -35.62152,-51.20594 -69.0167,-35.62152 -40.07421,2.22635 82.37477,42.30055 -8.90538,-6.67903"
         style="fill:#0079ff;stroke:none;stroke-width:1px;stroke-linecap:butt;stroke-linejoin:miter;stroke-opacity:1;fill-opacity:1;filter:url(#filter4484)" />
      <path
         inkscape:connector-curvature="0"
         inkscape:original-d="m 547.5037,209.82337 30.185,25.87286 8.62429,15.81118 21.5607,22.99809 22.9981,8.62429 11.49905,-2.87476 4.31213,7.1869 -14.3738,7.18691 -8.62429,-5.74953 4.31214,30.185 -1.43738,15.81119 -1.43738,21.5607 12.93643,12.93643 -1.43738,17.24857 12.93643,28.74761 8.62428,20.12333 18.68595,18.68596 17.24857,14.3738 15.81118,0 10.06167,-7.1869 4.31215,25.87286 2.87476,28.74761 1.43738,37.3719 -8.62429,50.30832 -7.1869,21.56072 -5.74953,22.99809 -7.1869,28.74761 -11.49904,21.56072 -15.81119,27.31023 -1.43738,15.81119 38.80927,-66.11952 27.31024,-94.86713 4.31215,-73.30642 -37.37191,-132.23902 -50.30832,-86.24285 -57.49523,-50.30832 z"
         inkscape:path-effect="#path-effect4490"
         id="path4488"
         d="m 547.5037,209.82337 30.185,25.87286 8.62429,15.81118 21.5607,22.99809 22.9981,8.62429 11.49905,-2.87476 4.31213,7.1869 -14.3738,7.18691 -8.62429,-5.74953 4.31214,30.185 c -0.53289,5.26532 -1.01205,10.53609 -1.43738,15.81119 -0.57891,7.17978 -1.0581,14.36761 -1.43738,21.5607 l 12.93643,12.93643 -1.43738,17.24857 c 4.41356,9.53647 8.72603,19.11972 12.93643,28.74761 2.92409,6.68649 5.79895,13.39451 8.62428,20.12333 l 18.68595,18.68596 17.24857,14.3738 15.81118,0 10.06167,-7.1869 4.31215,25.87286 c 1.21371,9.55469 2.17242,19.14178 2.87476,28.74761 0.90925,12.43579 1.38876,24.903 1.43738,37.3719 l -8.62429,50.30832 -7.1869,21.56072 c -1.91651,7.66603 -3.83302,15.33206 -5.74953,22.99809 -2.39564,9.58254 -4.79127,19.16507 -7.1869,28.74761 -3.72345,7.24463 -7.55705,14.43264 -11.49904,21.56072 -5.09097,9.20573 -10.36272,18.31148 -15.81119,27.31023 l -1.43738,15.81119 38.80927,-66.11952 27.31024,-94.86713 4.31215,-73.30642 L 704.1782,375.12216 653.86988,288.87931 596.37465,238.57099 547.5037,209.82337"
         style="fill:#008000;stroke:none;stroke-width:0.64562350999999996px;stroke-linecap:butt;stroke-linejoin:miter;stroke-opacity:1;fill-opacity:1" />
      <path
         inkscape:connector-curvature="0"
         inkscape:original-d="m 643.41373,293.17851 -13.35807,4.45269 0,48.97959 0,15.58441 20.03711,40.07422 22.26345,22.26345 26.71614,-6.67904 22.26345,8.90538 L 710.20408,386.685 681.2616,326.57368 z"
         inkscape:path-effect="#path-effect4494"
         id="path4492"
         d="m 643.41373,293.17851 -13.35807,4.45269 0,48.97959 0,15.58441 20.03711,40.07422 22.26345,22.26345 26.71614,-6.67904 22.26345,8.90538 L 710.20408,386.685 681.2616,326.57368 643.41373,293.17851"
         style="fill:#e9c6af;stroke:none;stroke-width:1px;stroke-linecap:butt;stroke-linejoin:miter;stroke-opacity:1;filter:url(#filter4504)" />
      <path
         inkscape:connector-curvature="0"
         inkscape:original-d="m 73.469388,337.70541 11.131725,51.20594 -13.35807,48.97959 -13.358071,17.81076 -4.45269,20.0371 20.037106,24.4898 26.716142,20.03711 15.58441,22.26345 8.90538,53.43228 -26.716136,28.94249 -24.489796,8.90538 -4.45269,31.16883 28.942486,26.71614 40.074216,57.88497 33.39517,26.71614 13.35807,44.5269 73.46939,13.35807 11.13173,-20.0371 -37.84787,-20.03711 -22.26345,-2.22634 -28.94249,-37.84787 -24.48979,-33.39518 -2.22635,-28.94248 20.03711,8.90538 24.48979,22.26345 48.97959,-6.67904 37.84787,-31.16883 6.67904,-26.71614 -46.75325,-28.94248 -37.84787,13.35807 -48.97959,20.0371 -20.0371,-13.35807 11.13172,-35.62152 22.26345,-28.94249 22.26345,-24.48979 -8.90538,-31.16883 11.13173,-24.4898 37.84786,-31.16883 -26.71614,-20.03711 -46.75324,8.90538 -35.62153,-8.90538 -11.13172,-46.75324 -17.810761,-24.4898 z"
         inkscape:path-effect="#path-effect4516"
         id="path4514"
         d="m 73.469388,337.70541 11.131725,51.20594 -13.35807,48.97959 -13.358071,17.81076 -4.45269,20.0371 20.037106,24.4898 26.716142,20.03711 15.58441,22.26345 8.90538,53.43228 -26.716136,28.94249 -24.489796,8.90538 -4.45269,31.16883 28.942486,26.71614 40.074216,57.88497 33.39517,26.71614 13.35807,44.5269 73.46939,13.35807 11.13173,-20.0371 -37.84787,-20.03711 -22.26345,-2.22634 c -9.78278,-12.51174 -19.43102,-25.12867 -28.94249,-37.84787 -8.26706,-11.05511 -16.4308,-22.18749 -24.48979,-33.39518 l -2.22635,-28.94248 20.03711,8.90538 24.48979,22.26345 48.97959,-6.67904 37.84787,-31.16883 6.67904,-26.71614 -46.75325,-28.94248 c -12.70823,4.18526 -25.32795,8.63928 -37.84787,13.35807 -16.50852,6.2221 -32.84351,12.90459 -48.97959,20.0371 l -20.0371,-13.35807 11.13172,-35.62152 22.26345,-28.94249 22.26345,-24.48979 -8.90538,-31.16883 11.13173,-24.4898 37.84786,-31.16883 -26.71614,-20.03711 -46.75324,8.90538 -35.62153,-8.90538 -11.13172,-46.75324 -17.810761,-24.4898 -22.263451,-44.5269"
         style="fill:#009aff;stroke:none;stroke-width:1px;stroke-linecap:butt;stroke-linejoin:miter;stroke-opacity:1;fill-opacity:1;filter:url(#filter4526)" />
    </g>
  </g>
</svg>
